<?xml version="1.0" encoding="utf-8"?><svg id="e5f9ad66-d64f-47a0-8976-7fc851bc99f8" data-name="Layer 1"
    xmlns="http://www.w3.org/2000/svg" viewBox="0 0 345.39 457.77">
    <defs>
        <style>.f51d7599-773f-4159-9870-fb39926469d8{fill:#fff;stroke:#0056a3;stroke-miterlimit:10;stroke-width:21px;}.a3830ff4-66dd-4b20-a861-523d02e49844{fill:#00c6f4;opacity:0.88;}.b41d0db9-ba18-49dc-bc0c-3bb817fd14bf{fill:#0056a3;}</style>
    </defs>
    <path class="f51d7599-773f-4159-9870-fb39926469d8" d="M334.75,139.28V406a41,41,0,0,1-41,41H51a41,41,0,0,1-41-41V51A41,41,0,0,1,51,10H197a38.67,38.67,0,0,1,26.1,10.13l99.07,90.62A38.64,38.64,0,0,1,334.75,139.28Z"/>
    <polygon class="a3830ff4-66dd-4b20-a861-523d02e49844" points="82.37 213.79 110.41 242.51 232.77 120.16 175.83 120.16 82.37 213.79"/>
    <polygon class="b41d0db9-ba18-49dc-bc0c-3bb817fd14bf" points="125.29 257.4 153.85 228.84 232.51 307.5 175.48 307.5 125.29 257.4"/>
    <polygon class="a3830ff4-66dd-4b20-a861-523d02e49844" points="174.79 207.21 124.95 257.05 153.79 285.85 232.43 207.21 174.79 207.21"/>
    <path class="b41d0db9-ba18-49dc-bc0c-3bb817fd14bf" d="M167.56,405.5v-7.95h7.95v7.95Z"/>
    <path class="b41d0db9-ba18-49dc-bc0c-3bb817fd14bf" d="M211.25,405.5h-7.39v-4.41a12,12,0,0,1-4.34,3.83,11.2,11.2,0,0,1-5.06,1.26,11.47,11.47,0,0,1-8.88-4.17q-3.69-4.18-3.69-11.66,0-7.64,3.59-11.62a11.74,11.74,0,0,1,9.09-4,11.3,11.3,0,0,1,8.73,4.19V364h7.95ZM190,389.82c0,3.21.45,5.53,1.33,7a6,6,0,0,0,5.39,3.12,5.86,5.86,0,0,0,4.67-2.34c1.28-1.56,1.92-3.88,1.92-7,0-3.46-.62-5.94-1.86-7.46a6.14,6.14,0,0,0-9.53,0Q190,385.34,190,389.82Z"/>
    <path class="b41d0db9-ba18-49dc-bc0c-3bb817fd14bf" d="M225.05,384.6l-7.23-1.3a11.24,11.24,0,0,1,4.2-6.45q3-2.1,8.83-2.1,5.33,0,7.93,1.26a7.93,7.93,0,0,1,3.67,3.2c.71,1.29,1.06,3.67,1.06,7.12l-.08,9.29a31.91,31.91,0,0,0,.38,5.85,16.77,16.77,0,0,0,1.43,4h-7.87c-.21-.52-.47-1.31-.77-2.35-.13-.47-.23-.78-.28-.93a14.45,14.45,0,0,1-4.36,3,12.52,12.52,0,0,1-5,1,10.23,10.23,0,0,1-7.32-2.52,8.39,8.39,0,0,1-2.68-6.37,8.55,8.55,0,0,1,1.22-4.54,8,8,0,0,1,3.41-3.06,26.81,26.81,0,0,1,6.33-1.86,43.79,43.79,0,0,0,7.73-1.95v-.79a4.1,4.1,0,0,0-1.13-3.27c-.75-.66-2.18-1-4.27-1a5.76,5.76,0,0,0-3.32.83A5.86,5.86,0,0,0,225.05,384.6Zm10.64,6.46a48.82,48.82,0,0,1-4.84,1.22,14.27,14.27,0,0,0-4.33,1.39,3.31,3.31,0,0,0-1.56,2.8,3.92,3.92,0,0,0,1.25,2.89,4.34,4.34,0,0,0,3.17,1.22,6.89,6.89,0,0,0,4.11-1.42,5,5,0,0,0,1.89-2.63,15.66,15.66,0,0,0,.31-3.88Z"/>
    <path class="b41d0db9-ba18-49dc-bc0c-3bb817fd14bf" d="M259,405.5h-8V375.43h7.39v4.28a12.81,12.81,0,0,1,3.41-4,6.3,6.3,0,0,1,3.44-1,10.11,10.11,0,0,1,5.24,1.5L268,383.19a7,7,0,0,0-3.74-1.3,4.36,4.36,0,0,0-2.83.92,6.21,6.21,0,0,0-1.83,3.32c-.44,1.61-.67,5-.67,10.09Z"/>
    <path class="b41d0db9-ba18-49dc-bc0c-3bb817fd14bf" d="M287.72,375.43v6.34h-5.44v12.12a28.71,28.71,0,0,0,.16,4.29,1.74,1.74,0,0,0,.71,1,2.24,2.24,0,0,0,1.34.4,10.33,10.33,0,0,0,3.2-.77l.68,6.18a15.89,15.89,0,0,1-6.29,1.18,10,10,0,0,1-3.88-.72,5.62,5.62,0,0,1-2.53-1.87,7.37,7.37,0,0,1-1.12-3.1,38.24,38.24,0,0,1-.26-5.61V381.77h-3.65v-6.34h3.65v-6l8-4.64v10.62Z"/>
</svg>