<?xml version="1.0" encoding="utf-8"?><svg id="ab9d9081-01df-47e3-a820-699475d7e371" data-name="Layer 1" xmlns="http://www.w3.org/2000/svg" viewBox="0 0 345.39 457.77"><defs><style>.a2f4823a-b87c-4b20-a4fd-d09c19346999{fill:#fff;stroke-width:21px;}.a2f4823a-b87c-4b20-a4fd-d09c19346999,.aaf8007c-7900-405d-af7c-9959be596774{stroke:#00d8ff;stroke-miterlimit:10;}.b9381559-40f6-4af6-8334-af3bcca7e9e6{fill:#00d8ff;}.aaf8007c-7900-405d-af7c-9959be596774{fill:none;stroke-width:11px;}.a8ac38c7-93c7-42fb-80a8-bc8e44161c6e{fill:#00c3ff;}</style></defs><path class="a2f4823a-b87c-4b20-a4fd-d09c19346999" d="M334.75,139.28V406a41,41,0,0,1-41,41H51a41,41,0,0,1-41-41V51A41,41,0,0,1,51,10H197a38.67,38.67,0,0,1,26.1,10.13l99.07,90.62A38.64,38.64,0,0,1,334.75,139.28Z"/><circle class="b9381559-40f6-4af6-8334-af3bcca7e9e6" cx="172.37" cy="216.24" r="20.62"/><ellipse class="aaf8007c-7900-405d-af7c-9959be596774" cx="172.37" cy="216.24" rx="107.49" ry="41.89"/><ellipse class="aaf8007c-7900-405d-af7c-9959be596774" cx="172.37" cy="216.24" rx="107.49" ry="41.89" transform="translate(-101.08 257.4) rotate(-60)"/><ellipse class="aaf8007c-7900-405d-af7c-9959be596774" cx="172.37" cy="216.24" rx="41.89" ry="107.49" transform="translate(-85.02 115.16) rotate(-30)"/><path class="a8ac38c7-93c7-42fb-80a8-bc8e44161c6e" d="M237.87,404.63v-8h8v8Z"/><path class="a8ac38c7-93c7-42fb-80a8-bc8e44161c6e" d="M261.77,374.55V403.7a30.22,30.22,0,0,1-.75,8.11,6.51,6.51,0,0,1-2.89,3.69,10.12,10.12,0,0,1-5.45,1.34,17,17,0,0,1-2.56-.22,28.29,28.29,0,0,1-3-.63l1.39-6.8c.37.07.73.14,1.06.18a6.06,6.06,0,0,0,.92.07,3.48,3.48,0,0,0,2-.52,2.54,2.54,0,0,0,1-1.26,20.76,20.76,0,0,0,.25-4.42V374.55Zm-8-4.07v-7.37h8v7.37Z"/><path class="a8ac38c7-93c7-42fb-80a8-bc8e44161c6e" d="M267.29,396.05l8-1.22a5.88,5.88,0,0,0,2.07,3.53,7,7,0,0,0,4.36,1.2,7.9,7.9,0,0,0,4.64-1.13,2.54,2.54,0,0,0,1-2.13,2.09,2.09,0,0,0-.57-1.5,6.36,6.36,0,0,0-2.66-1.05q-9.63-2.12-12.2-3.87a7.76,7.76,0,0,1-3.57-6.77,8.35,8.35,0,0,1,3.08-6.57q3.09-2.67,9.58-2.67,6.17,0,9.17,2a10.36,10.36,0,0,1,4.14,5.95l-7.51,1.39a4.65,4.65,0,0,0-1.82-2.69,6.72,6.72,0,0,0-3.84-.94,8.66,8.66,0,0,0-4.5.88,1.89,1.89,0,0,0-.91,1.62,1.76,1.76,0,0,0,.79,1.44q1.08.8,7.44,2.24t8.88,3.54a7.35,7.35,0,0,1,2.49,5.92,9.09,9.09,0,0,1-3.46,7.11q-3.45,3-10.22,3-6.15,0-9.73-2.49A11.5,11.5,0,0,1,267.29,396.05Z"/></svg>